# xmcd
#
# Track frame offsets:
#	187
#	19387
#	34237
#	56812
#	77962
#	96637
#	117637
#	135112
#	157687
#	190012
#	212062
#	232912
#
# Disc length: 3333 seconds
#
# Revision: 1
# Processed by: cddbd v1.4PL0 Copyright (c) Steve Scherf et al.
# Submitted via: audiograbber 1.81.02
#
DISCID=9f0d030c
DTITLE=Fleetwood Mac - Fleetwood Mac in Chicago
DYEAR=1969
DGENRE=Blues
TTITLE0=Watch Out
TTITLE1=South Indiana
TTITLE2=Last Night
TTITLE3=Red Hot Jam
TTITLE4=I Held My Baby Last Night
TTITLE5=Madison Blues
TTITLE6=I Got The Blues
TTITLE7=World's In A Tangle
TTITLE8=Someday Soon Baby
TTITLE9=Black Jack Blues
TTITLE10=Everyday I Have The Blues
TTITLE11=Rockin' Boogie
EXTD=
EXTT0=
EXTT1=
EXTT2=
EXTT3=
EXTT4=
EXTT5=
EXTT6=
EXTT7=
EXTT8=
EXTT9=
EXTT10=
EXTT11=
PLAYORDER=
